<svg width="51" height="51" viewBox="0 0 51 51" fill="none" xmlns="http://www.w3.org/2000/svg">
<path d="M26.0002 2C12.747 2 2 13.0169 2 26.6076C2 37.4799 8.87679 46.7039 18.4128 49.9577C19.6123 50.1855 20.0526 49.4239 20.0526 48.7739C20.0526 48.1872 20.0304 46.2487 20.02 44.1925C13.3431 45.6811 11.9342 41.2891 11.9342 41.2891C10.8425 38.4448 9.26945 37.6885 9.26945 37.6885C7.09191 36.1613 9.43359 36.1926 9.43359 36.1926C11.8436 36.3662 13.1126 38.7285 13.1126 38.7285C15.2532 42.4904 18.7272 41.4028 20.0967 40.7741C20.3121 39.1836 20.9341 38.0981 21.6205 37.4836C16.2897 36.8613 10.6859 34.7513 10.6859 25.3224C10.6859 22.6358 11.6234 20.4406 13.1587 18.7174C12.9095 18.0976 12.088 15.5947 13.3912 12.2052C13.3912 12.2052 15.4066 11.5439 19.993 14.7276C21.9074 14.1824 23.9606 13.9089 26.0002 13.8996C28.0398 13.9089 30.0946 14.1824 32.0126 14.7276C36.5934 11.5439 38.606 12.2052 38.606 12.2052C39.9124 15.5947 39.0905 18.0976 38.8413 18.7174C40.3801 20.4406 41.3113 22.6358 41.3113 25.3224C41.3113 34.7737 35.6968 36.8548 30.3525 37.464C31.2133 38.2276 31.9804 39.7252 31.9804 42.021C31.9804 45.3135 31.9526 47.9634 31.9526 48.7739C31.9526 49.4288 32.3846 50.1961 33.6011 49.9544C43.132 46.697 50 37.4762 50 26.6076C50 13.0169 39.2546 2 26.0002 2" fill="#161514"/>
<path d="M26.0002 2C12.747 2 2 13.0169 2 26.6076C2 37.4799 8.87679 46.7039 18.4128 49.9577C19.6123 50.1855 20.0526 49.4239 20.0526 48.7739C20.0526 48.1872 20.0304 46.2487 20.02 44.1925C13.3431 45.6811 11.9342 41.2891 11.9342 41.2891C10.8425 38.4448 9.26945 37.6885 9.26945 37.6885C7.09191 36.1613 9.43359 36.1926 9.43359 36.1926C11.8436 36.3662 13.1126 38.7285 13.1126 38.7285C15.2532 42.4904 18.7272 41.4028 20.0967 40.7741C20.3121 39.1836 20.9341 38.0981 21.6205 37.4836C16.2897 36.8613 10.6859 34.7513 10.6859 25.3224C10.6859 22.6358 11.6234 20.4406 13.1587 18.7174C12.9095 18.0976 12.088 15.5947 13.3912 12.2052C13.3912 12.2052 15.4066 11.5439 19.993 14.7276C21.9074 14.1824 23.9606 13.9089 26.0002 13.8996C28.0398 13.9089 30.0946 14.1824 32.0126 14.7276C36.5934 11.5439 38.606 12.2052 38.606 12.2052C39.9124 15.5947 39.0905 18.0976 38.8413 18.7174C40.3801 20.4406 41.3113 22.6358 41.3113 25.3224C41.3113 34.7737 35.6968 36.8548 30.3525 37.464C31.2133 38.2276 31.9804 39.7252 31.9804 42.021C31.9804 45.3135 31.9526 47.9634 31.9526 48.7739C31.9526 49.4288 32.3846 50.1961 33.6011 49.9544C43.132 46.697 50 37.4762 50 26.6076C50 13.0169 39.2546 2 26.0002 2" stroke="black" stroke-width="1.5"/>
<path d="M11.1611 37.1624C11.1083 37.2835 10.9211 37.3198 10.7505 37.2367C10.5768 37.1572 10.4792 36.9922 10.5355 36.8707C10.5871 36.746 10.7747 36.7113 10.9481 36.7949C11.1222 36.8743 11.2214 37.041 11.1611 37.1624" fill="#161514"/>
<path d="M11.1611 37.1624C11.1083 37.2835 10.9211 37.3198 10.7505 37.2367C10.5768 37.1572 10.4792 36.9922 10.5355 36.8707C10.5871 36.746 10.7747 36.7113 10.9481 36.7949C11.1222 36.8743 11.2214 37.041 11.1611 37.1624" stroke="black" stroke-width="1.5"/>
<path d="M12.1313 38.263C12.017 38.3707 11.7937 38.3207 11.6422 38.1504C11.4855 37.9806 11.4561 37.7534 11.572 37.6441C11.6898 37.5363 11.9064 37.5868 12.0635 37.7566C12.2202 37.9285 12.2507 38.1541 12.1313 38.263" fill="#161514"/>
<path d="M12.1313 38.263C12.017 38.3707 11.7937 38.3207 11.6422 38.1504C11.4855 37.9806 11.4561 37.7534 11.572 37.6441C11.6898 37.5363 11.9064 37.5868 12.0635 37.7566C12.2202 37.9285 12.2507 38.1541 12.1313 38.263" stroke="black" stroke-width="1.5"/>
<path d="M13.0755 39.6662C12.9287 39.7699 12.6887 39.6726 12.5404 39.456C12.3936 39.2393 12.3936 38.9795 12.5435 38.8754C12.6923 38.7713 12.9287 38.8649 13.0791 39.0799C13.2254 39.3002 13.2254 39.5601 13.0755 39.6662" fill="#161514"/>
<path d="M13.0755 39.6662C12.9287 39.7699 12.6887 39.6726 12.5404 39.456C12.3936 39.2393 12.3936 38.9795 12.5435 38.8754C12.6923 38.7713 12.9287 38.8649 13.0791 39.0799C13.2254 39.3002 13.2254 39.5601 13.0755 39.6662" stroke="black" stroke-width="1.5"/>
<path d="M14.3698 41.0219C14.2385 41.1692 13.9588 41.1297 13.7541 40.9287C13.5446 40.7322 13.4863 40.4534 13.618 40.3062C13.7509 40.1585 14.0322 40.2001 14.2385 40.3994C14.4463 40.5955 14.5098 40.8763 14.3698 41.0219" fill="#161514"/>
<path d="M14.3698 41.0219C14.2385 41.1692 13.9588 41.1297 13.7541 40.9287C13.5446 40.7322 13.4863 40.4534 13.618 40.3062C13.7509 40.1585 14.0322 40.2001 14.2385 40.3994C14.4463 40.5955 14.5098 40.8763 14.3698 41.0219" stroke="black" stroke-width="1.5"/>
<path d="M16.1549 41.809C16.097 41.9999 15.8276 42.0866 15.5563 42.0055C15.2853 41.922 15.108 41.6985 15.1628 41.5056C15.2191 41.3136 15.4896 41.2232 15.763 41.3099C16.0335 41.393 16.2112 41.6149 16.1549 41.809" fill="#161514"/>
<path d="M16.1549 41.809C16.097 41.9999 15.8276 42.0866 15.5563 42.0055C15.2853 41.922 15.108 41.6985 15.1628 41.5056C15.2191 41.3136 15.4896 41.2232 15.763 41.3099C16.0335 41.393 16.2112 41.6149 16.1549 41.809" stroke="black" stroke-width="1.5"/>
<path d="M18.1154 41.9552C18.1221 42.1561 17.892 42.3228 17.6072 42.3264C17.3208 42.3329 17.0891 42.1703 17.0859 41.9726C17.0859 41.7696 17.3109 41.6046 17.5973 41.5998C17.8821 41.5941 18.1154 41.7555 18.1154 41.9552" fill="#161514"/>
<path d="M18.1154 41.9552C18.1221 42.1561 17.892 42.3228 17.6072 42.3264C17.3208 42.3329 17.0891 42.1703 17.0859 41.9726C17.0859 41.7696 17.3109 41.6046 17.5973 41.5998C17.8821 41.5941 18.1154 41.7555 18.1154 41.9552" stroke="black" stroke-width="1.5"/>
<path d="M19.9398 41.6392C19.9739 41.8353 19.776 42.0366 19.4931 42.0903C19.2151 42.1419 18.9576 42.0209 18.9223 41.8264C18.8878 41.6255 19.0893 41.4241 19.367 41.3721C19.6502 41.3221 19.9037 41.4399 19.9398 41.6392" fill="#161514"/>
<path d="M19.9398 41.6392C19.9739 41.8353 19.776 42.0366 19.4931 42.0903C19.2151 42.1419 18.9576 42.0209 18.9223 41.8264C18.8878 41.6255 19.0893 41.4241 19.367 41.3721C19.6502 41.3221 19.9037 41.4399 19.9398 41.6392" stroke="black" stroke-width="1.5"/>
<circle cx="26" cy="26" r="24.25" stroke="black" stroke-opacity="0.1" stroke-width="1.5"/>
</svg>
