<svg width="50" height="50" viewBox="0 0 50 50" fill="none" xmlns="http://www.w3.org/2000/svg">
<path d="M1 25C1 11.7452 11.7452 1 25 1C38.2548 1 49 11.7452 49 25C49 38.2548 38.2548 49 25 49C11.7452 49 1 38.2548 1 25Z" fill="white" stroke="black" stroke-opacity="0.1" stroke-width="1.5"/>
<mask id="mask0" mask-type="alpha" maskUnits="userSpaceOnUse" x="1" y="1" width="48" height="48">
<path fill-rule="evenodd" clip-rule="evenodd" d="M1 25C1 11.7452 11.7452 1 25 1C38.2548 1 49 11.7452 49 25C49 38.2548 38.2548 49 25 49C11.7452 49 1 38.2548 1 25Z" fill="white"/>
</mask>
<g mask="url(#mask0)">
<path fill-rule="evenodd" clip-rule="evenodd" d="M25.0014 12.2C21.5251 12.2 21.0888 12.2152 19.7235 12.2773C18.3608 12.3397 17.4306 12.5554 16.6168 12.872C15.7749 13.1989 15.0608 13.6362 14.3493 14.348C13.6373 15.0594 13.1999 15.7736 12.8719 16.6152C12.5546 17.4293 12.3386 18.3597 12.2773 19.7219C12.2162 21.0872 12.2002 21.5238 12.2002 25.0001C12.2002 28.4764 12.2157 28.9113 12.2775 30.2767C12.3402 31.6394 12.5559 32.5695 12.8722 33.3834C13.1994 34.2252 13.6367 34.9394 14.3485 35.6509C15.0597 36.3629 15.7738 36.8013 16.6152 37.1282C17.4296 37.4447 18.36 37.6605 19.7224 37.7229C21.0878 37.785 21.5238 37.8002 24.9998 37.8002C28.4764 37.8002 28.9113 37.785 30.2766 37.7229C31.6393 37.6605 32.5705 37.4447 33.3849 37.1282C34.2266 36.8013 34.9396 36.3629 35.6508 35.6509C36.3628 34.9394 36.8002 34.2252 37.1282 33.3836C37.4429 32.5695 37.6589 31.6391 37.7229 30.2769C37.7842 28.9116 37.8002 28.4764 37.8002 25.0001C37.8002 21.5238 37.7842 21.0875 37.7229 19.7222C37.6589 18.3595 37.4429 17.4293 37.1282 16.6155C36.8002 15.7736 36.3628 15.0594 35.6508 14.348C34.9388 13.636 34.2268 13.1986 33.3841 12.872C32.5681 12.5554 31.6375 12.3397 30.2748 12.2773C28.9094 12.2152 28.4748 12.2 24.9974 12.2H25.0014ZM24.5745 14.5065H24.5748L25.0014 14.5066C28.419 14.5066 28.8241 14.5189 30.1737 14.5802C31.4217 14.6373 32.0991 14.8458 32.5503 15.021C33.1476 15.253 33.5735 15.5304 34.0212 15.9784C34.4692 16.4264 34.7466 16.8531 34.9791 17.4504C35.1543 17.9011 35.3631 18.5784 35.4199 19.8264C35.4812 21.1758 35.4946 21.5811 35.4946 24.9972C35.4946 28.4132 35.4812 28.8185 35.4199 30.1679C35.3628 31.4159 35.1543 32.0932 34.9791 32.5439C34.7471 33.1412 34.4692 33.5666 34.0212 34.0143C33.5732 34.4623 33.1479 34.7397 32.5503 34.9717C32.0996 35.1477 31.4217 35.3557 30.1737 35.4127C28.8244 35.4741 28.419 35.4874 25.0014 35.4874C21.5835 35.4874 21.1784 35.4741 19.8291 35.4127C18.5811 35.3551 17.9037 35.1466 17.4523 34.9714C16.8549 34.7394 16.4282 34.462 15.9802 34.014C15.5322 33.566 15.2549 33.1404 15.0224 32.5428C14.8472 32.0922 14.6384 31.4148 14.5816 30.1668C14.5202 28.8175 14.508 28.4121 14.508 24.994C14.508 21.5758 14.5202 21.1726 14.5816 19.8232C14.6386 18.5752 14.8472 17.8979 15.0224 17.4467C15.2544 16.8493 15.5322 16.4227 15.9802 15.9747C16.4282 15.5267 16.8549 15.2493 17.4523 15.0168C17.9035 14.8408 18.5811 14.6328 19.8291 14.5754C21.0099 14.5221 21.4675 14.5061 23.8531 14.5034V14.5066C24.076 14.5063 24.3158 14.5064 24.5745 14.5065ZM30.298 18.1675C30.298 17.3192 30.986 16.632 31.834 16.632V16.6315C32.682 16.6315 33.37 17.3195 33.37 18.1675C33.37 19.0155 32.682 19.7035 31.834 19.7035C30.986 19.7035 30.298 19.0155 30.298 18.1675ZM25.0011 18.4267C21.3711 18.4268 18.428 21.37 18.428 25.0001C18.428 28.6303 21.3712 31.5722 25.0014 31.5722C28.6316 31.5722 31.5737 28.6303 31.5737 25.0001C31.5737 21.3699 28.6313 18.4267 25.0011 18.4267ZM29.2681 25.0001C29.2681 22.6435 27.3577 20.7334 25.0014 20.7334C22.6448 20.7334 20.7347 22.6435 20.7347 25.0001C20.7347 27.3564 22.6448 29.2668 25.0014 29.2668C27.3577 29.2668 29.2681 27.3564 29.2681 25.0001Z" fill="black"/>
</g>
</svg>
