<svg width="48" height="48" viewBox="0 0 48 48" fill="none" xmlns="http://www.w3.org/2000/svg">
<path fill-rule="evenodd" clip-rule="evenodd" d="M0 24C0 10.7452 10.7452 0 24 0C37.2549 0 48 10.7452 48 24C48 37.2549 37.2549 48 24 48C10.7452 48 0 37.2549 0 24Z" fill="#0077B5"/>
<path d="M0.75 24C0.75 11.1594 11.1594 0.75 24 0.75C36.8407 0.75 47.25 11.1594 47.25 24C47.25 36.8407 36.8407 47.25 24 47.25C11.1594 47.25 0.75 36.8407 0.75 24Z" stroke="black" stroke-opacity="0.1" stroke-width="1.5"/>
<path fill-rule="evenodd" clip-rule="evenodd" d="M17.3189 14.8227C17.2837 13.2203 16.138 12 14.2773 12C12.4166 12 11.2002 13.2203 11.2002 14.8227C11.2002 16.3918 12.3807 17.6472 14.2066 17.6472H14.2414C16.138 17.6472 17.3189 16.3918 17.3189 14.8227ZM11.5219 19.8781V36.22H16.9608V19.8781H11.5219ZM30.3133 19.4941C33.8924 19.4941 36.5756 21.8304 36.5756 26.8496L36.5754 36.2195H31.1367V27.477C31.1367 25.2808 30.3496 23.7824 28.3807 23.7824C26.878 23.7824 25.9831 24.7926 25.59 25.7683C25.4461 26.1179 25.4109 26.6051 25.4109 27.0933V36.22H19.9712C19.9712 36.22 20.0429 21.4117 19.9712 19.8781H25.4109V22.193C26.1327 21.0805 27.4256 19.4941 30.3133 19.4941Z" fill="white"/>
</svg>
