<svg width="20" height="20" viewBox="0 0 20 20" fill="none" xmlns="http://www.w3.org/2000/svg">
<path d="M10 20C15.5228 20 20 15.5228 20 10C20 4.47715 15.5228 0 10 0C4.47715 0 0 4.47715 0 10C0 15.5228 4.47715 20 10 20Z" fill="#0971BD"/>
<path fill-rule="evenodd" clip-rule="evenodd" d="M5.33337 7.1564C5.33337 7.1564 9.35817 9.43876 10.1394 9.43876C10.9582 9.43876 14.9394 7.2 14.9394 7.2L14.9458 6.8C14.9458 6.3584 14.5874 6 14.1446 6H6.13417C5.69177 6 5.33337 6.3584 5.33337 6.8V7.1564ZM14.9394 8.40001C14.9394 8.40001 10.9958 10.5388 10.1394 10.5388C9.35817 10.5388 5.33937 8.40001 5.33977 8.40001L5.33337 13.2C5.33337 13.6416 5.69217 14 6.13417 14H14.1446C14.5874 14 14.9458 13.6416 14.9458 13.2L14.9394 8.40001Z" fill="white"/>
</svg>
