<svg width="50" height="50" viewBox="0 0 50 50" fill="none" xmlns="http://www.w3.org/2000/svg">
<path d="M1 25C1 11.7452 11.7452 1 25 1C38.2548 1 49 11.7452 49 25C49 38.2548 38.2548 49 25 49C11.7452 49 1 38.2548 1 25Z" fill="white" stroke="black" stroke-opacity="0.1" stroke-width="1.5"/>
<path d="M29.2215 14.6238C29.0996 14.5624 29 14.6245 29 14.7617V31.6349L36.3355 35.329C36.701 35.5131 37 35.327 37 34.9154V18.6731C37 18.5922 36.9546 18.5182 36.8828 18.482L29.2215 14.6238" fill="#32FC8D"/>
<path d="M21 27.4276L28.9079 14.7265C28.9797 14.6113 29.1386 14.5666 29.261 14.6271L36.8998 18.4021C36.9949 18.449 37.0288 18.5666 36.9731 18.6561L29.0383 31.4001L21 27.4276" fill="#0BE370"/>
<path d="M13.5193 14.7096C13.0201 14.464 12.851 14.6457 13.1435 15.1135L20.8059 27.3678L29 31.4001L20.8588 18.38C20.8242 18.3246 20.7745 18.2799 20.7155 18.2507L13.5193 14.7096" fill="#14C767"/>
<path d="M21 34.9133C21 35.3267 20.7009 35.5136 20.3354 35.3287L13.4431 31.8429C13.1994 31.7197 13 31.3934 13 31.1179V14.9247C13 14.6491 13.1994 14.5244 13.4431 14.6477L20.9013 18.4197C20.9618 18.4503 21 18.5128 21 18.5811V34.9133" fill="#00AB6C"/>
</svg>
