<svg width="48" height="48" viewBox="0 0 48 48" fill="none" xmlns="http://www.w3.org/2000/svg">
<path d="M0 24C0 10.7452 10.7452 0 24 0C37.2547 0 48 10.7452 48 24C48 37.2547 37.2547 48 24 48C10.7452 48 0 37.2547 0 24Z" fill="#55ACEE"/>
<path d="M0.75 24C0.75 11.1594 11.1594 0.75 24 0.75C36.8405 0.75 47.25 11.1594 47.25 24C47.25 36.8405 36.8405 47.25 24 47.25C11.1594 47.25 0.75 36.8405 0.75 24Z" stroke="black" stroke-opacity="0.1" stroke-width="1.5"/>
<path d="M23.2812 19.5074L23.3316 20.3379L22.4922 20.2362C19.4369 19.8464 16.7676 18.5244 14.5013 16.3042L13.3934 15.2026L13.108 16.0161C12.5036 17.8296 12.8897 19.7447 14.1488 21.0327C14.8203 21.7446 14.6692 21.8462 13.5109 21.4225C13.108 21.2869 12.7554 21.1853 12.7219 21.2361C12.6043 21.3547 13.0073 22.897 13.3262 23.5071C13.7627 24.3546 14.6524 25.185 15.6261 25.6765L16.4487 26.0663L15.475 26.0833C14.5349 26.0833 14.5013 26.1001 14.6021 26.4561C14.9378 27.5577 16.264 28.7272 17.7413 29.2355L18.7822 29.5914L17.8756 30.1338C16.5326 30.9133 14.9546 31.354 13.3766 31.3881C12.6211 31.4049 12 31.4728 12 31.5237C12 31.6931 14.0481 32.6421 15.24 33.015C18.8157 34.1166 23.063 33.6421 26.2526 31.7608C28.519 30.4221 30.7853 27.7612 31.8427 25.185C32.4137 23.8122 32.9844 21.3039 32.9844 20.1006C32.9844 19.321 33.0348 19.2193 33.9749 18.2871C34.5288 17.7448 35.0491 17.1516 35.1499 16.9821C35.3179 16.6601 35.3011 16.6601 34.4448 16.9483C33.018 17.4567 32.8164 17.3889 33.5215 16.6262C34.0421 16.0839 34.6632 15.1009 34.6632 14.8128C34.6632 14.7619 34.4112 14.8467 34.1258 14.9992C33.8237 15.1687 33.1522 15.4229 32.6486 15.5754L31.7422 15.8636L30.9194 15.3043C30.4663 14.9992 29.8284 14.6603 29.4926 14.5586C28.6363 14.3213 27.3269 14.3552 26.5548 14.6264C24.4562 15.389 23.1301 17.355 23.2812 19.5074Z" fill="white"/>
</svg>
