<svg width="44" height="44" viewBox="0 0 44 44" fill="none" xmlns="http://www.w3.org/2000/svg">
<path d="M8.5 24.2331C7.2625 24.2331 6.25 25.2451 6.25 26.4819C6.25 27.7186 7.2625 28.7306 8.5 28.7306C9.7375 28.7306 10.75 27.7186 10.75 26.4819C10.75 25.2451 9.7375 24.2331 8.5 24.2331ZM8.5 33.228C7.2625 33.228 6.25 34.2399 6.25 35.4767C6.25 36.7135 7.2625 37.7254 8.5 37.7254C9.7375 37.7254 10.75 36.7135 10.75 35.4767C10.75 34.2399 9.7375 33.228 8.5 33.228ZM8.5 15.2383C7.2625 15.2383 6.25 16.2503 6.25 17.487C6.25 18.7238 7.2625 19.7357 8.5 19.7357C9.7375 19.7357 10.75 18.7238 10.75 17.487C10.75 16.2503 9.7375 15.2383 8.5 15.2383ZM1.75 16.3627C1.12 16.3627 0.625 16.8574 0.625 17.487C0.625 18.1167 1.12 18.6114 1.75 18.6114C2.38 18.6114 2.875 18.1167 2.875 17.487C2.875 16.8574 2.38 16.3627 1.75 16.3627ZM8.5 6.24352C7.2625 6.24352 6.25 7.25544 6.25 8.49223C6.25 9.72901 7.2625 10.7409 8.5 10.7409C9.7375 10.7409 10.75 9.72901 10.75 8.49223C10.75 7.25544 9.7375 6.24352 8.5 6.24352ZM42.25 18.6114C42.88 18.6114 43.375 18.1167 43.375 17.487C43.375 16.8574 42.88 16.3627 42.25 16.3627C41.62 16.3627 41.125 16.8574 41.125 17.487C41.125 18.1167 41.62 18.6114 42.25 18.6114ZM26.5 10.7409C27.7375 10.7409 28.75 9.72901 28.75 8.49223C28.75 7.25544 27.7375 6.24352 26.5 6.24352C25.2625 6.24352 24.25 7.25544 24.25 8.49223C24.25 9.72901 25.2625 10.7409 26.5 10.7409ZM26.5 2.87047C27.13 2.87047 27.625 2.37575 27.625 1.74612C27.625 1.11648 27.13 0.621765 26.5 0.621765C25.87 0.621765 25.375 1.11648 25.375 1.74612C25.375 2.37575 25.87 2.87047 26.5 2.87047ZM1.75 25.3575C1.12 25.3575 0.625 25.8522 0.625 26.4819C0.625 27.1115 1.12 27.6062 1.75 27.6062C2.38 27.6062 2.875 27.1115 2.875 26.4819C2.875 25.8522 2.38 25.3575 1.75 25.3575ZM17.5 41.0984C16.87 41.0984 16.375 41.5931 16.375 42.2228C16.375 42.8524 16.87 43.3471 17.5 43.3471C18.13 43.3471 18.625 42.8524 18.625 42.2228C18.625 41.5931 18.13 41.0984 17.5 41.0984ZM17.5 2.87047C18.13 2.87047 18.625 2.37575 18.625 1.74612C18.625 1.11648 18.13 0.621765 17.5 0.621765C16.87 0.621765 16.375 1.11648 16.375 1.74612C16.375 2.37575 16.87 2.87047 17.5 2.87047ZM17.5 10.7409C18.7375 10.7409 19.75 9.72901 19.75 8.49223C19.75 7.25544 18.7375 6.24352 17.5 6.24352C16.2625 6.24352 15.25 7.25544 15.25 8.49223C15.25 9.72901 16.2625 10.7409 17.5 10.7409ZM17.5 23.1088C15.6325 23.1088 14.125 24.6154 14.125 26.4819C14.125 28.3483 15.6325 29.8549 17.5 29.8549C19.3675 29.8549 20.875 28.3483 20.875 26.4819C20.875 24.6154 19.3675 23.1088 17.5 23.1088ZM35.5 24.2331C34.2625 24.2331 33.25 25.2451 33.25 26.4819C33.25 27.7186 34.2625 28.7306 35.5 28.7306C36.7375 28.7306 37.75 27.7186 37.75 26.4819C37.75 25.2451 36.7375 24.2331 35.5 24.2331ZM35.5 33.228C34.2625 33.228 33.25 34.2399 33.25 35.4767C33.25 36.7135 34.2625 37.7254 35.5 37.7254C36.7375 37.7254 37.75 36.7135 37.75 35.4767C37.75 34.2399 36.7375 33.228 35.5 33.228ZM35.5 15.2383C34.2625 15.2383 33.25 16.2503 33.25 17.487C33.25 18.7238 34.2625 19.7357 35.5 19.7357C36.7375 19.7357 37.75 18.7238 37.75 17.487C37.75 16.2503 36.7375 15.2383 35.5 15.2383ZM35.5 6.24352C34.2625 6.24352 33.25 7.25544 33.25 8.49223C33.25 9.72901 34.2625 10.7409 35.5 10.7409C36.7375 10.7409 37.75 9.72901 37.75 8.49223C37.75 7.25544 36.7375 6.24352 35.5 6.24352ZM42.25 25.3575C41.62 25.3575 41.125 25.8522 41.125 26.4819C41.125 27.1115 41.62 27.6062 42.25 27.6062C42.88 27.6062 43.375 27.1115 43.375 26.4819C43.375 25.8522 42.88 25.3575 42.25 25.3575ZM26.5 33.228C25.2625 33.228 24.25 34.2399 24.25 35.4767C24.25 36.7135 25.2625 37.7254 26.5 37.7254C27.7375 37.7254 28.75 36.7135 28.75 35.4767C28.75 34.2399 27.7375 33.228 26.5 33.228ZM26.5 41.0984C25.87 41.0984 25.375 41.5931 25.375 42.2228C25.375 42.8524 25.87 43.3471 26.5 43.3471C27.13 43.3471 27.625 42.8524 27.625 42.2228C27.625 41.5931 27.13 41.0984 26.5 41.0984ZM17.5 14.114C15.6325 14.114 14.125 15.6206 14.125 17.487C14.125 19.3535 15.6325 20.8601 17.5 20.8601C19.3675 20.8601 20.875 19.3535 20.875 17.487C20.875 15.6206 19.3675 14.114 17.5 14.114ZM17.5 33.228C16.2625 33.228 15.25 34.2399 15.25 35.4767C15.25 36.7135 16.2625 37.7254 17.5 37.7254C18.7375 37.7254 19.75 36.7135 19.75 35.4767C19.75 34.2399 18.7375 33.228 17.5 33.228ZM26.5 23.1088C24.6325 23.1088 23.125 24.6154 23.125 26.4819C23.125 28.3483 24.6325 29.8549 26.5 29.8549C28.3675 29.8549 29.875 28.3483 29.875 26.4819C29.875 24.6154 28.3675 23.1088 26.5 23.1088ZM26.5 14.114C24.6325 14.114 23.125 15.6206 23.125 17.487C23.125 19.3535 24.6325 20.8601 26.5 20.8601C28.3675 20.8601 29.875 19.3535 29.875 17.487C29.875 15.6206 28.3675 14.114 26.5 14.114Z" fill="black"/>
</svg>
