<svg width="30" height="30" viewBox="0 0 30 30" fill="none" xmlns="http://www.w3.org/2000/svg">
<path fill-rule="evenodd" clip-rule="evenodd" d="M0 15C0 6.71573 6.71573 0 15 0C23.2843 0 30 6.71573 30 15C30 23.2843 23.2843 30 15 30C6.71573 30 0 23.2843 0 15Z" fill="#0077B5"/>
<path fill-rule="evenodd" clip-rule="evenodd" d="M10.8242 9.26416C10.8022 8.2627 10.0861 7.5 8.92316 7.5C7.76025 7.5 7 8.2627 7 9.26416C7 10.2449 7.73779 11.0295 8.87903 11.0295H8.90076C10.0861 11.0295 10.8242 10.2449 10.8242 9.26416ZM7.20105 12.4238V22.6375H10.6004V12.4238H7.20105ZM18.9457 12.1838C21.1826 12.1838 22.8596 13.644 22.8596 16.781L22.8595 22.6372H19.4603V17.1731C19.4603 15.8005 18.9684 14.864 17.7378 14.864C16.7986 14.864 16.2393 15.4954 15.9936 16.1052C15.9037 16.3237 15.8817 16.6282 15.8817 16.9333V22.6375H12.4819C12.4819 22.6375 12.5267 13.3823 12.4819 12.4238H15.8817V13.8706C16.3328 13.1753 17.1409 12.1838 18.9457 12.1838Z" fill="white"/>
</svg>
