<svg id="レイヤー_1" data-name="レイヤー 1" xmlns="http://www.w3.org/2000/svg" viewBox="0 0 595.28 595.28"><defs><style>.cls-1,.cls-2{fill:none;}.cls-1{stroke:#fff;stroke-miterlimit:10;stroke-width:5px;}</style></defs><title>アートボード 1 のコピー 2</title><polygon class="cls-1" points="85.44 244.84 91.42 237 100.12 247.55 85.44 244.84"/><polygon class="cls-2" points="405.56 92.48 352.06 130.67 498.47 225.68 405.56 92.48"/><path class="cls-2" d="M58.53,216.6l-1.21-1.27-1-1L45.9,203.34l-.9-.94-1-1.07-.82-.87-2.47-2.59,0-.05-.11-.12,21.1,42.75,23.81,4.39h0L60.1,218.25Z"/><path class="cls-2" d="M58.53,216.6l1.57,1.65Z"/><polygon class="cls-2" points="352.06 130.67 244.5 203.57 329.13 237.92 352.06 130.67"/><path class="cls-2" d="M40.63,197.82l0,.05Z"/><path class="cls-2" d="M43.15,200.46l.82.87Z"/><polygon class="cls-2" points="244.5 203.57 179.54 248.73 329.13 237.92 244.5 203.57"/><path class="cls-2" d="M56.32,214.29l1,1Z"/><path class="cls-2" d="M45,202.4l.9.94C45.58,203,45.29,202.7,45,202.4Z"/><polygon class="cls-2" points="498.47 225.68 352.06 130.67 329.13 237.92 498.47 225.68"/><polygon class="cls-1" points="100.39 178.32 130.79 238.29 119.56 216.14 100.39 178.32"/><polygon class="cls-1" points="289.67 419.81 240.86 446.44 322.71 440.45 289.67 419.81"/><polygon class="cls-1" points="248.02 21.79 150.93 21.79 200.8 118.58 248.02 21.79"/><path class="cls-1" d="M119.56,216.14l13.09-24.28-32.26-13.54Z"/><polygon class="cls-1" points="389.38 301.77 469.98 319.76 555.28 232.99 389.38 301.77"/><polygon class="cls-1" points="387.94 301.45 389.38 301.77 389.38 301.77 387.94 301.45 387.94 301.45"/><polygon class="cls-1" points="329.24 249.32 387.94 301.45 389.38 301.77 555.28 232.99 329.24 249.32"/><polygon class="cls-1" points="329.16 249.25 328.59 249.37 329.24 249.32 329.16 249.25"/><polygon class="cls-1" points="238.6 268.11 387.94 301.45 387.94 301.45 238.6 268.11"/><polygon class="cls-1" points="329.24 249.32 328.59 249.37 238.6 268.11 387.94 301.45 329.24 249.32"/><polygon class="cls-1" points="197.18 258.87 238.6 268.11 328.59 249.37 197.18 258.87"/><polygon class="cls-1" points="466.89 421.57 466.89 329.26 384.02 310.76 466.89 421.57"/><polygon class="cls-1" points="384.02 310.76 289.67 338.2 466.89 421.57 384.02 310.76 384.02 310.76"/><polygon class="cls-1" points="234.83 277.46 289.67 338.2 384.02 310.76 234.83 277.46"/><polygon class="cls-1" points="222.27 306.5 289.67 338.2 234.83 277.46 222.27 306.5"/><polygon class="cls-1" points="423.17 488.92 465.05 433.57 328.26 429.62 423.17 488.92"/><polygon class="cls-1" points="328.26 429.62 465.05 433.57 289.67 351.07 328.26 429.62"/><polygon class="cls-1" points="265.32 390.3 328.26 429.62 289.67 351.07 265.32 390.3"/><polygon class="cls-1" points="227.62 321.89 265.32 390.3 289.67 351.07 227.62 321.89"/><polygon class="cls-1" points="345.72 568.77 415.66 498.53 322.71 440.45 345.72 568.77"/><polygon class="cls-1" points="240.86 446.44 345.72 568.77 322.71 440.45 240.86 446.44"/><polygon class="cls-1" points="256.7 399.21 240.86 446.44 289.67 419.81 256.7 399.21"/><polygon class="cls-1" points="285.27 573.49 334.74 570.88 261.81 517.5 285.27 573.49"/><polygon class="cls-1" points="261.81 485.8 261.81 517.5 334.74 570.88 235.81 455.47 261.81 485.8"/><polygon class="cls-1" points="246.86 481.84 261.81 517.5 261.81 485.8 246.86 481.84"/><polygon class="cls-1" points="246.86 481.84 246.86 481.84 235.81 455.47 246.86 481.84"/><polygon class="cls-1" points="235.81 455.47 246.86 481.84 261.81 485.8 235.81 455.47"/><polygon class="cls-1" points="256.2 33.96 213.45 121.59 320.08 60.2 256.2 33.96"/><polygon class="cls-1" points="213.45 121.59 229 159.65 156 239.35 320.08 60.2 213.45 121.59"/><polygon class="cls-1" points="229 159.65 213.45 121.59 156 239.35 180.17 189.81 229 159.65"/><polygon class="cls-1" points="180.17 189.81 156 239.35 229 159.65 180.17 189.81"/><polygon class="cls-1" points="150.93 21.79 144.02 194.48 200.8 118.58 150.93 21.79"/><polygon class="cls-1" points="200.8 118.58 144.02 194.48 164.98 192 200.8 118.58"/><polygon class="cls-1" points="144.02 194.48 142.25 238.59 164.98 192 144.02 194.48"/><polygon class="cls-1" points="100.39 178.32 138.74 39.84 62.04 102.67 100.39 178.32"/><path class="cls-1" d="M132.65,191.86l6.09-152L100.39,178.32Z"/><polygon class="cls-1" points="130.79 238.29 132.65 191.86 119.56 216.14 130.79 238.29"/><polygon class="cls-1" points="56 115.68 40 182.72 92.32 187.32 56 115.68"/><polygon class="cls-1" points="92.32 187.32 40 182.72 101.65 229.31 92.32 187.32 92.32 187.32"/><polygon class="cls-1" points="111.68 225.52 92.32 187.32 92.32 187.32 111.68 225.52"/><polygon class="cls-1" points="92.32 187.32 101.65 229.31 111.68 225.52 92.32 187.32"/><polygon class="cls-1" points="101.65 229.31 121.03 243.95 111.68 225.52 101.65 229.31"/><path class="cls-1" d="M57.32,215.33l1.21,1.27Z"/><path class="cls-1" d="M60.1,218.25l25.34,26.59h0Z"/><polygon class="cls-1" points="85.44 244.84 85.44 244.84 85.44 244.84 85.44 244.84"/><path class="cls-1" d="M40.63,197.82l0,.05,2.47,2.59.82.87,1,1.07c.29.3.58.62.9.94l10.42,10.95,1,1,1.21,1.27,1.57,1.65,25.34,26.59h0l6-7.84-50.9-39.3Z"/><path class="cls-1" d="M40.52,197.7l.11.12Z"/><path class="cls-1" d="M44,201.33l1,1.07Z"/><path class="cls-1" d="M40.68,197.87l2.47,2.59Z"/><path class="cls-1" d="M45.9,203.34l10.42,10.95Z"/><polygon class="cls-1" points="411.59 73.67 347.01 47.43 344.58 120.21 411.59 73.67"/><polygon class="cls-1" points="344.58 120.21 347.01 47.43 238.04 166.41 344.58 120.21 344.58 120.21"/><polygon class="cls-1" points="238.04 194.29 344.51 120.25 238.04 194.19 238.04 194.29"/><polygon class="cls-1" points="238.04 194.19 344.51 120.25 344.58 120.21 238.04 166.41 238.04 166.41 238.04 194.19"/><polygon class="cls-1" points="344.51 120.25 344.58 120.21 344.58 120.21 344.51 120.25"/><polygon class="cls-1" points="238.04 166.41 167.74 243.17 238.04 166.41 238.04 166.41"/><polygon class="cls-1" points="238.04 194.19 199.97 220.63 167.74 243.17 238.04 194.29 238.04 194.19"/><polygon class="cls-1" points="238.04 194.29 167.74 243.17 238.04 194.29 238.04 194.29"/><polygon class="cls-1" points="238.04 194.19 238.04 166.41 167.74 243.17 199.97 220.63 238.04 194.19"/></svg>