<svg id="レイヤー_1" data-name="レイヤー 1" xmlns="http://www.w3.org/2000/svg" viewBox="0 0 595.28 595.28"><defs><style>.cls-1{fill:none;stroke:#fff;stroke-miterlimit:10;stroke-width:5px;}</style></defs><title>アートボード 1 のコピー</title><polygon class="cls-1" points="411.59 73.67 199.97 220.63 167.74 243.17 347.01 47.43 411.59 73.67"/><polygon class="cls-1" points="156 239.35 320.08 60.2 256.2 33.96 156 239.35"/><polygon class="cls-1" points="142.25 238.59 248.02 21.79 150.93 21.79 142.25 238.59"/><polygon class="cls-1" points="130.79 238.29 138.74 39.84 62.04 102.67 130.79 238.29"/><polygon class="cls-1" points="56 115.68 121.03 243.95 40 182.72 56 115.68"/><polygon class="cls-1" points="111.68 250.44 41.01 197.04 61.32 240.17 111.68 250.44"/><polygon class="cls-1" points="177.94 248.84 404.18 91.58 499.86 225.58 177.94 248.84"/><polygon class="cls-1" points="197.18 258.87 555.28 232.99 469.98 319.76 197.18 258.87"/><polygon class="cls-1" points="234.83 277.46 466.89 329.26 466.89 421.57 222.27 306.5 234.83 277.46"/><polygon class="cls-1" points="227.62 321.89 265.32 390.3 423.17 488.92 465.05 433.57 227.62 321.89"/><polygon class="cls-1" points="256.7 399.22 415.66 498.53 345.72 568.77 240.86 446.44 256.7 399.22"/><polygon class="cls-1" points="235.81 455.47 334.74 570.88 285.27 573.49 235.81 455.47"/><polygon class="cls-1" points="142.25 238.59 200.8 118.58 150.93 21.79 142.25 238.59"/><polygon class="cls-1" points="156 239.35 320.08 60.2 213.45 121.59 156 239.35"/><polygon class="cls-1" points="167.74 243.17 344.58 120.21 347.01 47.43 167.74 243.17"/><polygon class="cls-1" points="177.94 249.84 499.86 226.58 350.67 129.77 177.94 249.84"/><polygon class="cls-1" points="100.39 178.32 138.74 39.84 130.79 238.29 100.39 178.32"/><polygon class="cls-1" points="92.32 187.32 40 182.72 121.03 243.95 92.32 187.32"/><polygon class="cls-1" points="41.01 197.04 85.12 245.03 111.68 250.44 41.01 197.04"/><polygon class="cls-1" points="197.18 258.87 555.28 232.99 389.38 301.77 197.18 258.87"/><polygon class="cls-1" points="222.27 306.5 234.83 277.46 384.02 310.76 466.89 421.57 222.27 306.5"/><polygon class="cls-1" points="235.81 455.47 261.81 517.5 334.74 570.88 235.81 455.47"/><polygon class="cls-1" points="465.05 433.57 328.26 429.62 265.32 390.3 227.62 321.89 465.05 433.57"/><polygon class="cls-1" points="322.71 440.45 345.72 568.77 240.86 446.44 256.7 399.22 322.71 440.45"/><polygon class="cls-1" points="85.12 245.03 96.06 238.64 111.68 250.44 85.12 245.03"/><polygon class="cls-1" points="101.65 229.31 92.32 187.32 121.03 243.95 101.65 229.31"/><polygon class="cls-1" points="100.39 178.32 132.65 191.86 130.79 238.29 100.39 178.32"/><polygon class="cls-1" points="142.25 238.59 200.8 118.58 144.02 194.48 142.25 238.59"/><polygon class="cls-1" points="213.45 121.59 229 159.65 156 239.35 213.45 121.59"/><polygon class="cls-1" points="238.04 166.41 344.58 120.21 167.74 243.17 238.04 166.41"/><polygon class="cls-1" points="177.94 249.84 350.67 129.77 328.93 238.93 177.94 249.84"/><polygon class="cls-1" points="196.11 258.87 388.31 301.77 329.16 249.25 196.11 258.87"/><polygon class="cls-1" points="234.83 277.46 384.02 310.76 289.67 338.2 222.27 306.5 234.83 277.46"/><polygon class="cls-1" points="227.62 321.89 289.67 351.07 328.26 429.62 265.32 390.3 227.62 321.89"/><polygon class="cls-1" points="322.71 440.45 240.86 446.44 256.7 399.22 322.71 440.45"/><polygon class="cls-1" points="261.81 517.5 261.81 485.8 235.81 455.47 261.81 517.5"/><polygon class="cls-1" points="196.11 258.87 329.16 249.25 238.04 268.23 196.11 258.87"/><polygon class="cls-1" points="234.83 277.46 289.67 338.2 222.27 306.5 234.83 277.46"/><polygon class="cls-1" points="227.62 321.89 265.32 390.3 289.67 351.07 227.62 321.89"/><polygon class="cls-1" points="289.67 419.81 240.86 446.44 256.7 399.22 289.67 419.81"/><polygon class="cls-1" points="261.81 485.8 246.86 481.84 235.81 455.47 261.81 485.8"/><polygon class="cls-1" points="229 159.65 180.17 189.81 156 239.35 229 159.65"/><polygon class="cls-1" points="144.02 194.48 164.98 192 142.25 238.59 144.02 194.48"/><polygon class="cls-1" points="132.65 191.86 119.56 216.14 130.79 238.29 132.65 191.86"/><polygon class="cls-1" points="111.68 225.52 101.65 229.31 121.03 243.95 111.68 225.52"/><polygon class="cls-1" points="96.06 238.64 100.39 248.14 111.68 250.44 96.06 238.64"/><polygon class="cls-1" points="238.04 166.41 238.04 194.29 167.74 243.17 238.04 166.41"/><polygon class="cls-1" points="177.94 249.84 328.93 238.93 244.5 203.57 177.94 249.84"/></svg>