<svg width="30" height="30" viewBox="0 0 30 30" fill="none" xmlns="http://www.w3.org/2000/svg">
<path fill-rule="evenodd" clip-rule="evenodd" d="M15 30C23.2843 30 30 23.2843 30 15C30 6.71573 23.2843 0 15 0C6.71573 0 0 6.71573 0 15C0 23.2843 6.71573 30 15 30Z" fill="#0971BD"/>
<path fill-rule="evenodd" clip-rule="evenodd" d="M15.209 14.1581C14.0372 14.1581 8 10.7346 8 10.7346V10.2C8 9.5376 8.5376 9 9.2012 9H21.2168C21.881 9 22.4186 9.5376 22.4186 10.2L22.409 10.8C22.409 10.8 16.4372 14.1581 15.209 14.1581ZM15.209 15.8082C16.4936 15.8082 22.409 12.6001 22.409 12.6001L22.4186 19.8001C22.4186 20.4625 21.881 21.0001 21.2168 21.0001H9.2012C8.5382 21.0001 8 20.4625 8 19.8001L8.0096 12.6001C8.009 12.6001 14.0372 15.8082 15.209 15.8082Z" fill="white"/>
</svg>
